<svg width="0" height="0" class="hidden">
  <symbol viewBox="0 0 24 24" fill="none" xmlns="http://www.w3.org/2000/svg" id="icon-search">
    <path d="M21.319 20.027l-6.087-6.086a6.968 6.968 0 0 0 1.456-4.285c0-1.88-.734-3.642-2.06-4.97a6.98 6.98 0 0 0-4.972-2.061 6.99 6.99 0 0 0-4.97 2.06 6.975 6.975 0 0 0-2.061 4.971c0 1.878.734 3.645 2.06 4.971a6.975 6.975 0 0 0 4.971 2.06 6.97 6.97 0 0 0 4.282-1.453l6.087 6.085a.19.19 0 0 0 .136.056.191.191 0 0 0 .136-.056l1.022-1.02a.19.19 0 0 0 .041-.21.191.191 0 0 0-.041-.062zm-7.95-6.658a5.222 5.222 0 0 1-3.713 1.537 5.222 5.222 0 0 1-3.712-1.537 5.222 5.222 0 0 1-1.538-3.713c0-1.401.546-2.72 1.538-3.712a5.222 5.222 0 0 1 3.712-1.538c1.402 0 2.721.544 3.713 1.538a5.222 5.222 0 0 1 1.537 3.712 5.218 5.218 0 0 1-1.537 3.713z"
      fill="#2F63F5"></path>
  </symbol>
  <symbol viewBox="0 0 20 20" fill="none" xmlns="http://www.w3.org/2000/svg" id="icon-menu">
    <path d="M10 8.333c-.917 0-1.667.75-1.667 1.667s.75 1.667 1.667 1.667 1.667-.75 1.667-1.667-.75-1.667-1.667-1.667zm5 0c-.916 0-1.666.75-1.666 1.667s.75 1.667 1.666 1.667c.917 0 1.667-.75 1.667-1.667S15.917 8.333 15 8.333zm-10 0c-.917 0-1.667.75-1.667 1.667s.75 1.667 1.667 1.667 1.667-.75 1.667-1.667S5.917 8.333 5 8.333z"
      fill="#8B8FA3"></path>
  </symbol>
  <symbol viewBox="0 0 16 16" fill="none" xmlns="http://www.w3.org/2000/svg" id="icon-back-arrow">
        <path d="M11.08 1.99336C11.0026 1.91575 10.9106 1.85418 10.8094 1.81217C10.7082 1.77016 10.5996 1.74854 10.49 1.74854C10.3804 1.74854 10.2719 1.77016 10.1706 1.81217C10.0694 1.85418 9.97741 1.91575 9.9 1.99336L4.36 7.53336C4.2982 7.59503 4.24917 7.66829 4.21571 7.74894C4.18226 7.82959 4.16504 7.91605 4.16504 8.00336C4.16504 8.09067 4.18226 8.17712 4.21571 8.25777C4.24917 8.33842 4.2982 8.41168 4.36 8.47336L9.9 14.0134C10.2267 14.34 10.7533 14.34 11.08 14.0134C11.4067 13.6867 11.4067 13.16 11.08 12.8334L6.25334 8.00002L11.0867 3.16669C11.4067 2.84669 11.4067 2.31336 11.08 1.99336Z" fill="black"/>
    </symbol>
      <symbol viewBox="0 0 20 20" fill="none" xmlns="http://www.w3.org/2000/svg" id="icon-close">
    <path d="M10.75 9.997l5.628-5.633a.532.532 0 0 0-.001-.751.546.546 0 0 0-.75 0L10 9.248 4.372 3.612a.548.548 0 0 0-.75.001.525.525 0 0 0-.154.376c0 .142.055.275.154.373L9.25 9.997l-5.627 5.635a.532.532 0 0 0 .001.751c.097.096.233.15.374.15h.003a.526.526 0 0 0 .373-.152L10 10.748l5.629 5.635a.527.527 0 0 0 .576.114.53.53 0 0 0 .173-.864l-5.629-5.636z"
      fill="#738499"></path>
  </symbol>
  <symbol viewBox="0 0 24 24" fill="none" xmlns="http://www.w3.org/2000/svg" id="icon-calendar">
    <path d="M2.999 6v14c0 1.103.897 2 2 2h14c1.103 0 2-.897 2-2V6c0-1.103-.897-2-2-2h-2V2h-2v2h-6V2h-2v2h-2c-1.103 0-2 .897-2 2zm16.002 14H4.999V8h14l.002 12z" fill="#738499"></path>
  </symbol>
  <symbol viewBox="0 0 24 24" fill="none" xmlns="http://www.w3.org/2000/svg" id="icon-delete">
    <path d="M6 19c0 1.1.9 2 2 2h8c1.1 0 2-.9 2-2V9c0-1.1-.9-2-2-2H8c-1.1 0-2 .9-2 2v10zM18 4h-2.5l-.71-.71c-.18-.18-.44-.29-.7-.29H9.91c-.26 0-.52.11-.7.29L8.5 4H6c-.55 0-1 .45-1 1s.45 1 1 1h12c.55 0 1-.45 1-1s-.45-1-1-1z" fill="#738499"></path>
  </symbol>
  <symbol viewBox="0 0 16 16" fill="none" xmlns="http://www.w3.org/2000/svg" id="icon-checkmark">
    <path d="M14.917 2.302h-1.092a.497.497 0 0 0-.393.19L6.99 10.655 3.901 6.739a.5.5 0 0 0-.392-.19H2.417a.125.125 0 0 0-.099.201l4.28 5.422c.2.253.584.253.786 0l7.631-9.67a.124.124 0 0 0-.098-.2z" fill="#fff"></path>
  </symbol>
</svg>