<svg width="0" height="0" class="hidden">
  <symbol viewBox="0 0 24 24" fill="none" xmlns="http://www.w3.org/2000/svg" id="icon-search">
    <path d="M21.319 20.027l-6.087-6.086a6.968 6.968 0 0 0 1.456-4.285c0-1.88-.734-3.642-2.06-4.97a6.98 6.98 0 0 0-4.972-2.061 6.99 6.99 0 0 0-4.97 2.06 6.975 6.975 0 0 0-2.061 4.971c0 1.878.734 3.645 2.06 4.971a6.975 6.975 0 0 0 4.971 2.06 6.97 6.97 0 0 0 4.282-1.453l6.087 6.085a.19.19 0 0 0 .136.056.191.191 0 0 0 .136-.056l1.022-1.02a.19.19 0 0 0 .041-.21.191.191 0 0 0-.041-.062zm-7.95-6.658a5.222 5.222 0 0 1-3.713 1.537 5.222 5.222 0 0 1-3.712-1.537 5.222 5.222 0 0 1-1.538-3.713c0-1.401.546-2.72 1.538-3.712a5.222 5.222 0 0 1 3.712-1.538c1.402 0 2.721.544 3.713 1.538a5.222 5.222 0 0 1 1.537 3.712 5.218 5.218 0 0 1-1.537 3.713z"
      fill="#2F63F5"></path>
  </symbol>
  <symbol viewBox="0 0 20 20" fill="none" xmlns="http://www.w3.org/2000/svg" id="icon-menu">
    <path d="M10 8.333c-.917 0-1.667.75-1.667 1.667s.75 1.667 1.667 1.667 1.667-.75 1.667-1.667-.75-1.667-1.667-1.667zm5 0c-.916 0-1.666.75-1.666 1.667s.75 1.667 1.666 1.667c.917 0 1.667-.75 1.667-1.667S15.917 8.333 15 8.333zm-10 0c-.917 0-1.667.75-1.667 1.667s.75 1.667 1.667 1.667 1.667-.75 1.667-1.667S5.917 8.333 5 8.333z"
      fill="#8B8FA3"></path>
  </symbol>
  <symbol viewBox="0 0 16 16" fill="none" xmlns="http://www.w3.org/2000/svg" id="icon-back-arrow">
        <path d="M11.08 1.99336C11.0026 1.91575 10.9106 1.85418 10.8094 1.81217C10.7082 1.77016 10.5996 1.74854 10.49 1.74854C10.3804 1.74854 10.2719 1.77016 10.1706 1.81217C10.0694 1.85418 9.97741 1.91575 9.9 1.99336L4.36 7.53336C4.2982 7.59503 4.24917 7.66829 4.21571 7.74894C4.18226 7.82959 4.16504 7.91605 4.16504 8.00336C4.16504 8.09067 4.18226 8.17712 4.21571 8.25777C4.24917 8.33842 4.2982 8.41168 4.36 8.47336L9.9 14.0134C10.2267 14.34 10.7533 14.34 11.08 14.0134C11.4067 13.6867 11.4067 13.16 11.08 12.8334L6.25334 8.00002L11.0867 3.16669C11.4067 2.84669 11.4067 2.31336 11.08 1.99336Z" fill="black"/>
    </symbol>
</svg>